<?xml version="1.0" encoding="utf-8"?>
<!-- Generator: Adobe Illustrator 25.0.1, SVG Export Plug-In . SVG Version: 6.00 Build 0)  -->
<svg version="1.1" id="Layer_1" xmlns="http://www.w3.org/2000/svg" xmlns:xlink="http://www.w3.org/1999/xlink" x="0px" y="0px"
	 viewBox="0 0 320 48" style="enable-background:new 0 0 320 48;" xml:space="preserve">
<style type="text/css">
	.st0{fill:#223959;}
</style>
<g>
	<path class="st0" d="M10.74,21.91c3.74-7.49,7.62-9.72,15.25-8.24c2.34,0.45,4.49,1.84,7.22,3.01c3.3-3.29,7.99-3.85,12.98-3.01
		c4.37,0.74,7.67,3.29,7.89,7.35c0.41,7.3,0.12,14.63,0.12,22.18c-0.97,0.05-1.91,0.1-3.3,0.17c0-2.85,0.01-5.5,0-8.14
		c-0.02-4.07,0.14-8.16-0.12-12.22c-0.28-4.35-3.32-6.26-8.94-6.01c-4.7,0.21-7.24,2.58-7.24,6.79c-0.01,6.43,0,12.86,0,19.43
		c-1.3,0-2.25,0-3.6,0c0-5.93,0-11.76,0-17.6c0-7.48-6.65-11.24-13.33-7.55c-2.41,1.33-2.98,3.58-2.99,6.08
		c-0.02,5.17-0.01,10.33-0.01,15.5c0,1.08,0,2.16,0,3.58c-1.46,0.07-2.7,0.12-3.94,0.18C10.74,36.24,10.74,29.07,10.74,21.91z"/>
	<path class="st0" d="M266.27,44c-0.25-0.16-0.47-0.39-0.74-0.48c-10.45-3.25-14.85-13.42-9.74-23.17c1.08-2.07,3.07-4.15,5.15-5.11
		c6.24-2.86,12.79-2.86,19.05,0.07c4.84,2.26,7.03,7.5,6.35,14.32c-9.35,0-18.74,0-28.06,0c-0.75,4.46,1.49,8.19,5.93,9.65
		c5.97,1.96,11.9,1.76,17.59-1.28c1.1,3,0.05,4.63-2.87,5.25c-0.66,0.14-1.27,0.49-1.91,0.75C273.43,44,269.85,44,266.27,44z
		 M258.17,25.96c8.11,0,16.21,0,24.32,0c-0.14-4.25-1.96-7.41-5.85-8.03c-4.11-0.65-8.49-0.65-12.61,0.01
		C260.14,18.57,258.3,21.75,258.17,25.96z"/>
	<path class="st0" d="M248.36,4c-0.03,7.24-0.3,14.48-0.01,21.71c0.36,8.81-1.99,15.64-11.33,18.29c-3.78,0-7.56,0-11.34,0
		c-0.14-0.14-0.25-0.35-0.41-0.41c-9.81-3.7-13.6-12.53-9.56-22.28c1.51-3.65,4.23-6.4,8.03-6.9c4.75-0.62,9.62-0.44,14.44-0.28
		c2.99,0.09,4.13,1.95,3.09,5.18c-4.02-2.44-8.44-2.62-12.92-2.22c-6.83,0.6-10.02,4.03-10.2,10.79c-0.2,7.79,2.42,11.2,9.48,12.3
		c0.78,0.12,1.58,0.23,2.37,0.27c10.88,0.52,14.72-3.13,14.73-14c0.01-5.57,0.13-11.14-0.05-16.71c-0.09-2.67,0.2-4.83,3.1-5.74
		C247.96,4,248.16,4,248.36,4z"/>
	<path class="st0" d="M72.24,44c-0.81-0.34-1.64-0.64-2.43-1.02c-1.33-0.65-2.81-1.14-3.94-2.05c-5.48-4.42-5.53-10.52-4.58-16.66
		c0.86-5.57,4.34-9.37,9.92-10.13c4.44-0.6,9.14-0.61,13.55,0.12c5.7,0.95,9.12,5.02,9.52,10.77c0.41,5.92,0.09,11.9,0.09,18.18
		c-0.92,0.04-1.94,0.09-3.38,0.15c0-4.48,0.01-8.72,0-12.97C90.98,20.12,87.69,16.86,77.31,17c-1.97,0.03-3.98,0.28-5.89,0.77
		c-3.74,0.95-6.04,3.47-6.54,7.29c-0.29,2.24-0.35,4.57-0.06,6.81c0.6,4.65,3.22,7.25,7.87,8.11c5.09,0.95,10.08,0.77,14.78-1.75
		c1,3.5,0.8,3.89-2.38,5.01c-0.53,0.19-1.01,0.51-1.52,0.77C79.8,44,76.02,44,72.24,44z"/>
	<path class="st0" d="M112.24,44c-0.15-0.13-0.28-0.34-0.44-0.38c-10.31-2.13-12.42-11.04-10.44-20.37c1-4.68,4.15-7.63,8.72-8.93
		c4.97-1.41,9.99-1.3,15.05-0.21c3,0.64,4,2.17,2.95,5.18c-5.2-2.79-10.7-2.95-16.23-1.63c-5.57,1.33-7.77,5.1-7.48,12.18
		c0.24,5.77,2.92,9.12,8.24,10.11c5.29,0.99,10.47,0.8,15.45-1.79c0.98,2.77,0.31,4.46-2.61,5.04c-0.65,0.13-1.24,0.53-1.86,0.8
		C119.8,44,116.02,44,112.24,44z"/>
	<path class="st0" d="M309.26,17.13c-8.88-0.61-13.07,3.25-13.1,12.08c-0.01,4.56,0,9.13,0,13.92c-1.24,0-2.25,0-3.29,0
		c0-6.21-0.55-12.41,0.14-18.46c0.89-7.85,7.58-12.04,16.26-11.11C309.26,14.75,309.26,15.94,309.26,17.13z"/>
	<path class="st0" d="M138.51,4c0,13.01,0,26.02,0,39.19c-1.25,0-2.19,0-3.33,0c0-12.57,0-25.06,0-37.49
		c0.93-0.58,1.83-1.14,2.73-1.7C138.11,4,138.31,4,138.51,4z"/>
	<path class="st0" d="M208.09,43.26c-1.12,0-2,0-3.28,0c0-2.05,0-4.01,0-5.97c0-2.69,0.02-5.37-0.01-8.06
		c-0.09-8.77-3.58-12.21-12.43-12.26c-0.2,0-0.4,0-0.6,0c-8.9,0.05-12.27,3.42-12.29,12.3c-0.01,4.56,0,9.12,0,13.88
		c-1.31,0-2.35,0-4.16,0c0.4-6.82,0.77-13.61,1.25-20.4c0.07-0.94,0.6-1.89,1.06-2.77c2.89-5.46,9.95-7.79,19.11-6.35
		c6.42,1.01,10.63,4.63,11.21,10.96C208.53,30.69,208.09,36.87,208.09,43.26z"/>
	<path class="st0" d="M145.26,28.58c5.21,4.9,10.15,9.55,15.37,14.46c-3,0.61-5.14,0.47-7.15-1.61c-3.38-3.49-7.01-6.73-10.62-9.98
		c-2.05-1.85-2.18-3.53-0.22-5.53c3.05-3.12,6.13-6.23,8.93-9.57c1.84-2.2,3.84-2.9,6.92-1.99
		C154.07,19.11,149.79,23.71,145.26,28.58z"/>
	<path class="st0" d="M168.86,43.25c-1.2,0-2.08,0-3.16,0c0-9.68,0-19.26,0-29.04c1.05,0,1.98,0,3.16,0
		C168.86,23.86,168.86,33.43,168.86,43.25z"/>
	<path class="st0" d="M165.68,4.79c1.15,0,2.08,0,2.97,0c0.91,4.22,0.62,4.62-2.97,4.01C165.68,7.6,165.68,6.37,165.68,4.79z"/>
</g>
</svg>
